<svg width="344" height="407" viewBox="0 0 344 407" fill="none" xmlns="http://www.w3.org/2000/svg">
<g id="image-small-white 1">
<g id="text">
<path id="Vector" d="M83.8954 197.702L73.155 191.45L75.2099 187.914C75.8318 186.847 76.5912 186.046 77.4813 185.51C78.3782 184.974 79.3515 184.724 80.4078 184.76C81.4641 184.796 82.5354 185.132 83.6354 185.768C84.7217 186.397 85.543 187.171 86.0991 188.068C86.6552 188.973 86.9255 189.947 86.9099 190.99C86.8944 192.034 86.5722 193.093 85.9571 194.16L83.9022 197.695L83.8954 197.702ZM83.4851 195.917L84.8708 193.537C85.3508 192.71 85.5923 191.89 85.5953 191.078C85.5915 190.267 85.3699 189.511 84.9237 188.803C84.4707 188.096 83.8138 187.485 82.9324 186.978C82.0579 186.471 81.2049 186.195 80.3666 186.165C79.5352 186.128 78.7661 186.315 78.0593 186.714C77.3525 187.113 76.7694 187.723 76.2894 188.544L74.9037 190.924L83.4851 195.917Z" fill="black"/>
<path id="Vector_2" d="M92.4517 183.865C91.9984 184.576 91.415 185.118 90.7012 185.476C89.9874 185.84 89.225 186.001 88.414 185.964C87.603 185.927 86.8114 185.664 86.0528 185.177C85.301 184.696 84.7395 184.098 84.3682 183.384C83.9969 182.67 83.8231 181.913 83.8466 181.115C83.8701 180.317 84.1187 179.559 84.5855 178.827C85.0522 178.095 85.6425 177.547 86.3426 177.189C87.0496 176.831 87.8052 176.67 88.6026 176.714C89.4 176.758 90.1849 177.028 90.9434 177.508C91.7089 178.003 92.2841 178.607 92.6554 179.335C93.0267 180.063 93.2006 180.819 93.1703 181.617C93.1399 182.409 92.8981 183.16 92.4517 183.865ZM91.3992 183.188C91.7239 182.681 91.8917 182.142 91.8959 181.569C91.9068 181.003 91.7612 180.458 91.4794 179.934C91.1908 179.41 90.7731 178.975 90.2332 178.63C89.6933 178.285 89.1269 178.09 88.5407 178.051C87.9545 178.013 87.4099 178.118 86.8932 178.366C86.3765 178.614 85.9626 178.991 85.6379 179.497C85.3132 180.004 85.1522 180.543 85.1412 181.109C85.1302 181.675 85.269 182.22 85.544 182.744C85.819 183.261 86.2298 183.696 86.7698 184.048C87.3097 184.4 87.8829 184.588 88.4759 184.627C89.0689 184.665 89.6272 184.56 90.137 184.312C90.6469 184.064 91.0676 183.687 91.3923 183.181L91.3992 183.188Z" fill="black"/>
<path id="Vector_3" d="M97.8505 175.553C97.3971 176.217 96.8605 176.594 96.2273 176.686C95.594 176.778 94.9254 176.583 94.2076 176.095L90.0106 173.223L89.0766 174.584L88.0444 173.88L88.2813 173.538C88.4979 173.223 88.5577 172.909 88.4813 172.582C88.4048 172.255 88.206 171.99 87.8915 171.773L87.2695 171.346L87.9733 170.313L89.6822 171.485L90.7921 169.857L91.8243 170.561L90.7144 172.19L94.9115 175.062C95.1575 175.231 95.4034 175.346 95.6421 175.4C95.8808 175.453 96.1192 175.431 96.3504 175.328C96.5816 175.225 96.8055 175.019 97.0085 174.718C97.0559 174.643 97.1168 174.554 97.1708 174.444C97.2316 174.335 97.2789 174.246 97.3194 174.164L98.2422 174.794C98.1951 174.924 98.1276 175.061 98.0465 175.211C97.9654 175.355 97.8978 175.471 97.8437 175.553H97.8505Z" fill="black"/>
<path id="Vector_4" d="M99.5482 172.906L89.5046 165.58L94.2236 159.106L95.2355 159.845L91.3087 165.244L94.8024 167.793L98.533 162.667L99.5448 163.405L95.8143 168.531L99.3354 171.1L103.262 165.7L104.274 166.439L99.5551 172.913L99.5482 172.906Z" fill="black"/>
<path id="Vector_5" d="M105.521 164.769L95.7817 157.039L96.5065 156.122L109.232 156.908L108.954 157.264L100.761 150.762L101.587 149.714L111.319 157.444L110.594 158.362L97.8214 157.534L98.0991 157.178L106.347 163.722L105.521 164.769Z" fill="black"/>
<path id="Vector_6" d="M115.27 152.809L102.888 148.126L103.789 147.079L114.916 151.399L114.74 151.604L108.838 141.231L109.753 140.169L116.178 151.747L115.263 152.809H115.27Z" fill="black"/>
<path id="Vector_7" d="M168.95 104.995C168.223 105.489 167.469 105.82 166.686 105.974C165.903 106.128 165.126 106.124 164.355 105.958C163.585 105.791 162.861 105.473 162.17 104.999C161.48 104.525 160.871 103.907 160.342 103.132C159.814 102.364 159.456 101.568 159.262 100.757C159.067 99.9461 159.029 99.1483 159.148 98.3634C159.267 97.5785 159.536 96.8543 159.963 96.1703C160.389 95.4862 160.965 94.9038 161.685 94.4094C162.385 93.9287 163.092 93.6253 163.813 93.4924C164.535 93.3594 165.223 93.3562 165.871 93.4828C166.519 93.6093 167.072 93.8318 167.537 94.1502L166.82 95.313C166.157 94.8933 165.434 94.6852 164.657 94.682C163.88 94.6856 163.125 94.9347 162.392 95.436C161.638 95.951 161.096 96.5947 160.752 97.3533C160.408 98.112 160.296 98.9241 160.402 99.7898C160.508 100.656 160.853 101.513 161.443 102.37C162.019 103.213 162.697 103.844 163.468 104.263C164.24 104.676 165.038 104.863 165.869 104.811C166.701 104.76 167.49 104.477 168.244 103.961C168.977 103.46 169.485 102.844 169.768 102.127C170.051 101.409 170.116 100.659 169.962 99.8885L171.303 99.6367C171.428 100.175 171.431 100.768 171.318 101.417C171.206 102.072 170.956 102.708 170.571 103.337C170.186 103.966 169.643 104.521 168.95 104.995Z" fill="black"/>
<path id="Vector_8" d="M169.013 91.9882L168.018 90.4446L169.071 89.7645L170.066 91.3081L169.013 91.9882ZM174.744 100.903L169.912 93.3754L170.965 92.6953L175.797 100.223L174.744 100.903Z" fill="black"/>
<path id="Vector_9" d="M177.924 98.8696L173.214 91.2595L174.281 90.5998L175.057 91.8511L174.797 91.7568C174.754 91.2864 174.848 90.8359 175.084 90.3983C175.321 89.9675 175.694 89.5838 176.217 89.2608L176.699 88.9584L177.358 90.0262L176.692 90.4385C176.142 90.7821 175.81 91.2201 175.69 91.7663C175.57 92.3125 175.702 92.8985 176.087 93.5241L178.984 98.2099L177.924 98.8696Z" fill="black"/>
<path id="Vector_10" d="M186.283 94.0702C185.522 94.5102 184.753 94.7253 183.969 94.7016C183.185 94.678 182.455 94.4631 181.772 94.0435C181.089 93.6238 180.527 93.0262 180.081 92.2576C179.634 91.489 179.399 90.7057 179.375 89.9078C179.351 89.11 179.524 88.3726 179.896 87.682C180.267 86.9982 180.837 86.4294 181.591 85.9894C182.074 85.7075 182.577 85.5347 183.095 85.4641C183.619 85.3934 184.13 85.4047 184.628 85.5115C185.126 85.6183 185.57 85.814 185.953 86.0987L185.263 87.1727C184.832 86.8678 184.341 86.7064 183.795 86.6748C183.25 86.6433 182.726 86.7753 182.216 87.071C181.707 87.3666 181.32 87.764 181.064 88.2563C180.8 88.7486 180.687 89.2879 180.71 89.8743C180.733 90.4608 180.913 91.0329 181.243 91.6042C181.566 92.162 181.976 92.5966 182.475 92.908C182.967 93.2195 183.5 93.3875 184.058 93.4053C184.617 93.43 185.155 93.2911 185.665 92.9955C186.174 92.6998 186.547 92.3093 186.783 91.8239C187.02 91.3386 187.119 90.8198 187.069 90.2676L188.357 90.2343C188.414 90.7046 188.361 91.1823 188.207 91.6741C188.052 92.1591 187.816 92.6171 187.491 93.0347C187.166 93.4522 186.765 93.802 186.283 94.0838V94.0702Z" fill="black"/>
<path id="Vector_11" d="M191.271 91.0121L185.196 79.93L186.29 79.3247L192.365 90.4068L191.271 91.0121Z" fill="black"/>
<path id="Vector_12" d="M198.264 87.5078C197.524 87.8932 196.761 88.0536 195.977 88.0027C195.194 87.9518 194.463 87.696 193.793 87.2422C193.124 86.7883 192.575 86.1634 192.163 85.3605C191.75 84.5576 191.549 83.7606 191.566 82.9693C191.583 82.1781 191.79 81.4542 192.183 80.7976C192.575 80.141 193.131 79.6269 193.858 79.2552C194.429 78.9592 194.994 78.7997 195.56 78.7835C196.118 78.7604 196.65 78.8534 197.148 79.0489C197.654 79.2443 198.105 79.5287 198.502 79.8883C198.898 80.2548 199.227 80.6693 199.468 81.1456C199.516 81.2408 199.571 81.3565 199.626 81.4859C199.682 81.6152 199.73 81.7514 199.778 81.8875L193.062 85.3563L192.526 84.3153L198.603 81.1769L198.3 81.8944C198.106 81.302 197.797 80.8464 197.36 80.5279C196.922 80.2094 196.444 80.0207 195.92 79.9754C195.395 79.9301 194.884 80.0347 194.388 80.2894C193.892 80.5441 193.505 80.9074 193.214 81.3861C192.923 81.8581 192.783 82.3908 192.785 82.9705C192.788 83.5502 192.975 84.1495 193.353 84.7548C193.628 85.4151 194.019 85.9111 194.511 86.2499C195.003 86.5886 195.536 86.7771 196.108 86.8017C196.681 86.8331 197.218 86.7147 197.721 86.4532C198.306 86.1503 198.72 85.7596 198.976 85.281C199.226 84.8024 199.374 84.2902 199.405 83.7444L200.611 83.7593C200.634 84.1957 200.568 84.6529 200.393 85.1244C200.225 85.5958 199.961 86.0403 199.602 86.4512C199.25 86.8689 198.795 87.2189 198.251 87.4942L198.264 87.5078Z" fill="black"/>
<path id="Vector_13" d="M211.514 81.1033C210.711 81.4685 209.915 81.6563 209.118 81.6669C208.321 81.6842 207.557 81.5377 206.826 81.241C206.096 80.9443 205.44 80.4973 204.844 79.9135C204.249 79.3297 203.762 78.609 203.376 77.7583C202.99 76.9075 202.775 76.0628 202.724 75.2309C202.679 74.399 202.777 73.6074 203.033 72.856C203.288 72.1046 203.68 71.4343 204.216 70.8453C204.752 70.2562 205.424 69.7757 206.226 69.4105C206.994 69.059 207.75 68.885 208.486 68.8816C209.222 68.8781 209.897 68.9978 210.511 69.2336C211.126 69.4763 211.631 69.7877 212.028 70.1882L211.113 71.2087C210.532 70.6794 209.862 70.3484 209.099 70.2087C208.335 70.0758 207.545 70.1887 206.736 70.5539C205.906 70.9329 205.255 71.4611 204.788 72.1521C204.321 72.8432 204.059 73.6219 204.015 74.4883C203.971 75.3547 204.159 76.2609 204.586 77.207C205.006 78.1394 205.562 78.8803 206.246 79.4227C206.929 79.9651 207.687 80.289 208.512 80.3875C209.337 80.4859 210.168 80.3456 210.997 79.9667C211.806 79.6014 212.417 79.087 212.816 78.4236C213.222 77.7669 213.416 77.0431 213.399 76.252L214.762 76.2456C214.791 76.7843 214.692 77.3713 214.47 77.993C214.248 78.6147 213.89 79.2029 213.402 79.7508C212.914 80.3056 212.282 80.7518 211.514 81.1033Z" fill="black"/>
<path id="Vector_14" d="M217.921 78.0933L213.056 66.4326L214.213 65.9498L219.077 77.6104L217.921 78.0933Z" fill="black"/>
<path id="Vector_15" d="M278.128 60.462L276.231 48.1668L277.552 47.9629L278.402 53.4903L284.993 52.4706L284.143 46.9432L285.464 46.7393L287.361 59.0344L286.04 59.2384L285.19 53.711L278.599 54.7307L279.449 60.258L278.128 60.462Z" fill="black"/>
<path id="Vector_16" d="M294.042 58.4442C293.211 58.5367 292.44 58.4244 291.73 58.0935C291.013 57.7626 290.425 57.2675 289.959 56.6081C289.492 55.9418 289.209 55.1656 289.11 54.2658C289.01 53.3728 289.102 52.5539 289.405 51.8227C289.701 51.0916 290.148 50.4893 290.752 50.0159C291.357 49.5424 292.057 49.2595 292.861 49.1739C293.501 49.1028 294.087 49.1546 294.619 49.3363C295.152 49.5179 295.616 49.7886 296.013 50.155C296.41 50.5215 296.732 50.9428 296.98 51.4259C297.227 51.909 297.38 52.413 297.437 52.9448C297.451 53.0538 297.458 53.1834 297.459 53.3198C297.46 53.4562 297.46 53.6062 297.461 53.7495L289.956 54.6029L289.828 53.444L296.625 52.6757L296.082 53.2443C296.113 52.6235 295.981 52.0853 295.693 51.6365C295.398 51.181 295.015 50.8417 294.544 50.6052C294.072 50.3755 293.554 50.2893 293.002 50.3532C292.451 50.4172 291.954 50.6173 291.52 50.9603C291.085 51.3034 290.76 51.7414 290.552 52.288C290.343 52.8346 290.312 53.4554 290.445 54.1573C290.468 54.8733 290.655 55.4726 290.991 55.9689C291.334 56.4652 291.765 56.8247 292.291 57.0542C292.817 57.2836 293.362 57.3697 293.921 57.3057C294.574 57.2345 295.105 57.0138 295.505 56.6572C295.906 56.3007 296.231 55.8695 296.453 55.3706L297.58 55.8155C297.445 56.2321 297.215 56.6356 296.89 57.0123C296.565 57.3889 296.157 57.7114 295.682 57.9727C295.199 58.2342 294.655 58.4004 294.049 58.4714L294.042 58.4442Z" fill="black"/>
<path id="Vector_17" d="M300.088 57.6248L299.337 48.7072L300.584 48.5991L300.706 50.0649L300.521 49.8612C300.697 49.4238 300.988 49.061 301.395 48.7795C301.803 48.4979 302.306 48.3319 302.919 48.2813L303.485 48.2309L303.593 49.4786L302.809 49.5436C302.169 49.6011 301.666 49.8422 301.314 50.2735C300.962 50.7048 300.814 51.2853 300.872 52.0216L301.334 57.5099L300.087 57.6112L300.088 57.6248Z" fill="black"/>
<path id="Vector_18" d="M309.809 57.1294C308.964 57.1743 308.187 57.0142 307.476 56.6492C306.766 56.2842 306.191 55.7549 305.745 55.0682C305.299 54.3814 305.057 53.5913 305.005 52.6913C304.96 51.8048 305.113 50.9993 305.477 50.2747C305.842 49.55 306.35 48.9679 307.009 48.5283C307.668 48.0819 308.43 47.8397 309.302 47.7947C310.167 47.7497 310.952 47.9029 311.655 48.268C312.359 48.633 312.927 49.1555 313.359 49.8287C313.791 50.5087 314.034 51.2988 314.079 52.1989C314.131 53.1125 313.964 53.9318 313.593 54.6565C313.221 55.3812 312.706 55.9701 312.04 56.4029C311.382 56.8425 310.633 57.0847 309.802 57.1226L309.809 57.1294ZM309.742 55.8816C310.341 55.8515 310.872 55.6717 311.341 55.3422C311.809 55.0126 312.168 54.5813 312.425 54.0481C312.681 53.5081 312.787 52.921 312.757 52.2732C312.72 51.6323 312.547 51.0602 312.238 50.5637C311.929 50.0673 311.525 49.6804 311.02 49.4099C310.521 49.1326 309.969 49.0124 309.369 49.0493C308.77 49.0794 308.239 49.2592 307.771 49.5888C307.302 49.9183 306.943 50.3429 306.679 50.8693C306.416 51.3957 306.303 51.9827 306.34 52.6305C306.377 53.2714 306.55 53.8504 306.866 54.3604C307.182 54.8705 307.593 55.2573 308.091 55.5278C308.59 55.7983 309.142 55.9253 309.742 55.8884V55.8816Z" fill="black"/>
<path id="Vector_19" d="M316.422 56.628L316.193 43.9909L317.447 43.9714L317.604 52.8168L317.072 52.7442L322.002 47.5787L323.616 47.5507L320.179 51.202L324.094 56.49L322.595 56.5174L318.92 51.6239L319.724 51.6747L317.223 54.3599L317.62 53.3214L317.676 56.6086L316.422 56.628Z" fill="black"/>
<path id="Vector_20" d="M328.64 56.7553C328.02 56.7446 327.454 56.5903 326.948 56.2858C326.442 55.9812 326.045 55.567 325.756 55.0295C325.468 54.4989 325.335 53.8857 325.346 53.1968L325.435 47.5559L326.689 47.5773L326.599 53.0682C326.594 53.5456 326.685 53.9681 326.871 54.3355C327.056 54.7029 327.33 54.9881 327.672 55.1911C328.02 55.4009 328.423 55.5014 328.879 55.5129C329.336 55.5244 329.744 55.427 330.105 55.2207C330.465 55.0212 330.75 54.7266 330.952 54.3506C331.162 53.9677 331.269 53.5102 331.273 52.9782L331.357 47.6511L332.611 47.6725L332.469 56.6215L331.215 56.6001L331.241 54.8676L331.521 54.9413C331.298 55.5152 330.932 55.9671 330.416 56.2901C329.9 56.613 329.308 56.7727 328.64 56.7621V56.7553Z" fill="black"/>
<path id="Vector_21" d="M49.4157 353.341L37.0112 354.061L36.9367 352.731L42.5158 352.405L42.1303 345.736L36.5513 346.062L36.4771 344.726L48.8816 344.007L48.9561 345.343L43.377 345.669L43.7623 352.338L49.3414 352.012L49.4157 353.348V353.341Z" fill="black"/>
<path id="Vector_22" d="M48.9186 337.282C48.9293 338.114 48.7421 338.872 48.3501 339.556C47.958 340.233 47.4086 340.775 46.7019 341.18C45.9951 341.579 45.192 341.788 44.2927 341.805C43.3933 341.823 42.5885 341.643 41.8918 341.278C41.1882 340.913 40.6339 340.404 40.2221 339.765C39.8103 339.119 39.5957 338.39 39.5851 337.578C39.5752 336.93 39.6816 336.357 39.9109 335.844C40.1401 335.332 40.4584 334.901 40.8587 334.53C41.259 334.167 41.7074 333.885 42.2107 333.692C42.714 333.492 43.2314 333.387 43.7628 333.378C43.8718 333.377 44.0013 333.377 44.1376 333.39C44.2739 333.396 44.4171 333.416 44.5603 333.436L44.6909 340.999L43.5259 341.018L43.4054 334.171L43.9192 334.762C43.3055 334.669 42.7608 334.753 42.2782 335.001C41.7955 335.249 41.4224 335.599 41.1451 336.05C40.8679 336.502 40.7339 337 40.7433 337.559C40.7459 338.119 40.905 338.629 41.207 339.099C41.5022 339.568 41.9127 339.927 42.4318 340.191C42.9508 340.448 43.5714 340.547 44.2797 340.476C44.9885 340.52 45.608 340.394 46.1313 340.099C46.6546 339.803 47.0548 339.412 47.3386 338.906C47.6224 338.407 47.7562 337.874 47.7467 337.302C47.7369 336.647 47.5708 336.095 47.2485 335.66C46.933 335.218 46.5362 334.865 46.0647 334.595L46.6116 333.515C47.0144 333.683 47.3905 333.954 47.7328 334.314C48.0752 334.674 48.3566 335.109 48.5702 335.613C48.7837 336.117 48.8954 336.676 48.905 337.283L48.9186 337.282Z" fill="black"/>
<path id="Vector_23" d="M48.6853 331.173L36.0588 331.068L36.0666 329.813L48.6931 329.918L48.6853 331.173Z" fill="black"/>
<path id="Vector_24" d="M48.6629 327.436L39.735 327.054L39.7905 325.806L41.4875 325.88L41.2295 326.072C40.7172 325.802 40.327 325.421 40.0589 324.925C39.7909 324.428 39.6657 323.89 39.6903 323.317C39.7212 322.628 39.9432 322.013 40.3563 321.472C40.7694 320.932 41.2924 320.561 41.9251 320.353L41.9267 320.701C41.251 320.452 40.738 320.038 40.4015 319.474C40.065 318.909 39.9122 318.289 39.9363 317.621C39.9608 317.02 40.1286 316.474 40.4397 315.981C40.7509 315.489 41.1647 315.098 41.6812 314.816C42.1978 314.534 42.7763 314.402 43.4102 314.433L49.2099 314.679L49.1544 315.927L43.8385 315.7C43.2933 315.675 42.8303 315.752 42.4428 315.931C42.0552 316.11 41.7566 316.364 41.5332 316.686C41.3167 317.007 41.1958 317.39 41.1774 317.826C41.1589 318.249 41.2493 318.638 41.435 318.991C41.6274 319.345 41.9081 319.63 42.2839 319.847C42.6596 320.063 43.1099 320.184 43.6483 320.202L48.9641 320.43L48.9086 321.678L43.5928 321.45C43.0475 321.426 42.5846 321.503 42.197 321.682C41.8095 321.861 41.5108 322.115 41.2875 322.436C41.0641 322.758 40.9501 323.14 40.9317 323.577C40.9132 324.014 40.9968 324.402 41.1892 324.749C41.3816 325.096 41.6623 325.381 42.0381 325.598C42.4139 325.814 42.8641 325.935 43.4025 325.96L48.7184 326.187L48.6629 327.436Z" fill="black"/>
<path id="Vector_25" d="M49.975 306.198L37.1599 309.498L37.2966 308.119L48.8804 305.255L48.8544 305.521L38.0648 300.429L38.2014 299.037L50.1116 304.806L49.9751 306.205L49.975 306.198Z" fill="black"/>
<path id="Vector_26" d="M51.2178 297.04C51.1455 297.599 50.9638 298.091 50.6931 298.502C50.4157 298.912 50.0764 299.221 49.6686 299.427C49.2607 299.634 48.8113 299.697 48.3272 299.631C47.8636 299.572 47.454 299.41 47.1053 299.166C46.7498 298.916 46.4688 298.562 46.2623 298.113C46.0558 297.657 45.9373 297.098 45.9138 296.43L45.8018 292.877L46.9268 293.029L47.0305 296.275C47.054 296.929 47.1994 297.42 47.453 297.739C47.7134 298.059 48.0482 298.248 48.4573 298.301C48.8527 298.353 49.2133 298.243 49.5323 297.968C49.8512 297.687 50.0402 297.304 50.1061 296.806C50.185 296.199 50.1279 295.653 49.9281 295.163C49.7282 294.673 49.4265 294.279 49.023 293.96C48.6196 293.648 48.1417 293.453 47.603 293.38L45.3531 293.077C44.8212 293.004 44.3654 293.143 43.9854 293.479C43.6054 293.822 43.3691 294.3 43.2834 294.915C43.211 295.454 43.2882 295.944 43.4947 296.394C43.708 296.836 44.0163 297.189 44.4195 297.446L43.6544 298.487C43.299 298.27 42.9978 297.965 42.737 297.563C42.4762 297.162 42.2902 296.72 42.1653 296.229C42.0471 295.739 42.0176 295.248 42.0834 294.75C42.169 294.101 42.3776 293.541 42.6956 293.069C43.0137 292.604 43.4209 292.254 43.9037 292.033C44.3864 291.813 44.9244 291.742 45.5039 291.821L51.5857 292.646L51.4212 293.888L49.6553 293.65L49.8589 293.493C50.1665 293.689 50.4335 293.974 50.6601 294.335C50.8866 294.695 51.0521 295.103 51.1496 295.567C51.2471 296.023 51.263 296.514 51.1973 297.033L51.2178 297.04Z" fill="black"/>
<path id="Vector_27" d="M52.0035 290.181L39.5386 288.193L39.7372 286.958L52.2022 288.946L52.0035 290.181Z" fill="black"/>
<path id="Vector_28" d="M53.3606 283.396C53.2477 284.01 52.998 284.543 52.6185 284.989C52.2391 285.44 51.7568 285.763 51.1853 285.957C50.6139 286.151 49.9872 286.188 49.312 286.061L43.7676 285.037L43.9935 283.808L49.3879 284.806C49.8585 284.892 50.2877 284.877 50.6823 284.745C51.0701 284.621 51.3961 284.401 51.6604 284.093C51.9179 283.785 52.0933 283.409 52.173 282.958C52.2527 282.508 52.2303 282.092 52.0922 281.704C51.9541 281.315 51.7141 280.989 51.3722 280.725C51.0303 280.46 50.6001 280.278 50.075 280.178L44.8443 279.214L45.0702 277.985L53.8608 279.608L53.6349 280.837L51.93 280.524L52.0446 280.258C52.5775 280.569 52.9611 281.011 53.1954 281.576C53.4297 282.141 53.4871 282.747 53.3675 283.41L53.3606 283.396Z" fill="black"/>
<path id="Vector_29" d="M55.413 273.252C55.2328 274.064 54.8749 274.762 54.3325 275.33C53.79 275.899 53.1309 276.297 52.3484 276.526C51.5727 276.755 50.7414 276.766 49.8616 276.572C48.9817 276.378 48.2441 276.02 47.6489 275.498C47.0536 274.975 46.6283 274.357 46.3796 273.635C46.131 272.913 46.0934 272.156 46.2668 271.364C46.407 270.736 46.6498 270.196 46.9884 269.758C47.3339 269.313 47.7411 268.963 48.21 268.702C48.6858 268.441 49.1892 268.275 49.7203 268.197C50.2583 268.12 50.783 268.144 51.3014 268.258C51.4106 268.285 51.5333 268.311 51.663 268.352C51.7994 268.392 51.9291 268.439 52.0657 268.493L50.4307 275.88L49.2916 275.626L50.7663 268.942L51.1239 269.636C50.5504 269.407 49.9983 269.355 49.4742 269.487C48.9501 269.612 48.5016 269.867 48.1286 270.237C47.7556 270.614 47.5056 271.072 47.3923 271.611C47.2722 272.157 47.3019 272.689 47.4815 273.214C47.6611 273.738 47.9766 274.187 48.4213 274.56C48.8659 274.933 49.4462 275.169 50.1553 275.268C50.8376 275.476 51.4714 275.5 52.043 275.334C52.6214 275.168 53.1039 274.879 53.4903 274.454C53.8767 274.036 54.1333 273.544 54.2602 272.991C54.4003 272.349 54.3704 271.777 54.1637 271.28C53.9569 270.776 53.6551 270.341 53.2581 269.968L54.0443 269.05C54.3998 269.307 54.7012 269.654 54.9485 270.089C55.2027 270.525 55.3753 271.008 55.4664 271.546C55.5575 272.085 55.5396 272.651 55.4062 273.252H55.413Z" fill="black"/>
<path id="Vector_30" d="M57.5576 264.308C57.3435 265.141 56.9446 265.811 56.3678 266.332C55.7842 266.846 55.0975 267.156 54.3075 267.249L54.0841 266.104C54.6764 265.992 55.1863 265.751 55.6139 265.387C56.0414 265.017 56.3255 264.566 56.4593 264.026C56.5931 263.507 56.5773 263.037 56.4187 262.621C56.26 262.199 55.9726 261.941 55.5633 261.834C55.2631 261.761 54.9975 261.782 54.78 261.906C54.5558 262.037 54.3726 262.201 54.2168 262.4C54.061 262.598 53.9392 262.783 53.8513 262.94L53.1753 264.096C52.7427 264.835 52.2817 265.328 51.7786 265.583C51.2756 265.83 50.758 265.887 50.2191 265.754C49.7142 265.626 49.3043 265.383 48.996 265.023C48.6877 264.669 48.4813 264.241 48.3904 263.75C48.2995 263.253 48.3244 262.741 48.4582 262.202C48.6455 261.471 49.0106 260.848 49.5466 260.348C50.0825 259.848 50.7217 259.558 51.464 259.487L51.6807 260.645C51.1428 260.736 50.6805 260.95 50.3004 261.279C49.9204 261.615 49.6702 262.025 49.5431 262.524C49.4159 263.009 49.4451 263.431 49.6171 263.785C49.7891 264.139 50.0627 264.363 50.4447 264.463C50.738 264.537 50.9833 264.522 51.194 264.419C51.4048 264.316 51.5813 264.172 51.7167 263.994C51.8522 263.816 51.9673 263.658 52.0484 263.515L52.8394 262.181C53.2247 261.531 53.6791 261.065 54.2161 260.783C54.7462 260.501 55.3047 260.437 55.8845 260.585C56.362 260.705 56.7516 260.949 57.0599 261.309C57.3682 261.669 57.5678 262.111 57.6588 262.629C57.7498 263.147 57.7184 263.707 57.5644 264.307L57.5576 264.308Z" fill="black"/>
</g>
<path id="Vector_31" d="M135.185 122.789C134.008 121.691 133.93 119.858 135.011 118.697C136.093 117.537 137.927 117.486 139.105 118.584C140.282 119.682 140.36 121.515 139.278 122.676C138.214 123.852 136.363 123.887 135.185 122.789ZM128.168 112.316C124.311 116.454 123.948 122.592 126.93 127.196C126.965 127.228 126.966 127.261 127 127.293C127.239 127.515 127.599 127.505 127.819 127.27L131.142 123.704C131.299 123.536 131.338 123.289 131.247 123.078C130.315 120.827 130.678 118.178 132.434 116.294C134.817 113.738 138.878 113.625 141.472 116.044C144.066 118.463 144.238 122.522 141.855 125.079C140.115 126.946 137.484 127.51 135.172 126.739C134.956 126.663 134.713 126.719 134.556 126.887L131.232 130.453C131.013 130.688 131.028 131.048 131.267 131.271C131.301 131.303 131.318 131.319 131.368 131.334C136.168 133.987 142.265 133.195 146.122 129.057C150.684 124.163 150.357 116.437 145.39 111.806C140.441 107.191 132.73 107.421 128.168 112.316Z" fill="#0066F5"/>
<path id="Vector_32" d="M251.294 45.3238L233.888 51.6779C232.675 52.1207 232.056 53.4505 232.495 54.6699L239.696 74.6677C240.135 75.8871 241.457 76.5084 242.67 76.0656L260.076 69.7114C261.289 69.2687 261.908 67.9389 261.469 66.7195L254.268 46.7217C253.829 45.5023 252.507 44.881 251.294 45.3238ZM260.256 67.1623C260.453 67.711 260.183 68.2928 259.637 68.4921L242.231 74.8462C241.685 75.0454 241.107 74.7736 240.909 74.2249L233.708 54.2271C233.511 53.6783 233.782 53.0966 234.327 52.8973L251.733 46.5432C252.279 46.3439 252.857 46.6158 253.055 47.1645L260.256 67.1623ZM244.628 71.2119L246.479 67.7768L242.871 66.3344L244.628 71.2119ZM250.896 57.7482C250.235 57.4376 249.106 57.16 247.59 57.7135C245.952 58.3113 244.408 59.358 243.349 60.2276L240.846 53.2771L238.42 54.1627L242.218 64.7103L243.631 63.2978C243.631 63.2978 245.959 60.999 248.385 60.1134C249.598 59.6706 250.143 60.2306 250.363 60.8403L252.997 68.1566L255.423 67.271L252.789 59.9547C252.783 59.7497 252.3 58.4083 250.896 57.7482ZM246.518 55.6903L248.944 54.8047C249.575 53.1258 249.66 51.6462 249.337 50.1775L246.911 51.0631C247.173 52.554 247.028 54.0557 246.518 55.6903Z" fill="#0066F5"/>
<path id="Vector_33" fill-rule="evenodd" clip-rule="evenodd" d="M38.1932 375.719L37.8315 375.394C37.4012 375.874 37.0131 376.389 36.6713 376.933C36.2971 376.682 35.8411 376.443 35.3328 376.244C33.8012 375.644 32.375 375.629 32.1473 376.211C31.9195 376.793 32.9765 377.751 34.508 378.352C34.9412 378.522 35.3659 378.645 35.7574 378.72C35.0674 380.428 34.7901 382.317 35.0194 384.235C34.6731 384.265 34.3016 384.325 33.9196 384.418C32.321 384.805 31.1442 385.612 31.2912 386.219C31.4382 386.827 32.8533 387.005 34.4519 386.618C34.8145 386.53 35.1553 386.421 35.464 386.297C36.0512 388.159 37.0911 389.771 38.4309 391.042C38.1999 391.244 37.9679 391.475 37.7432 391.73C36.6557 392.965 36.154 394.302 36.6226 394.715C37.0911 395.128 38.3526 394.462 39.44 393.227C39.6954 392.937 39.9185 392.641 40.1042 392.353C40.7544 392.771 41.4471 393.121 42.171 393.399L42.3454 392.945C42.6678 393.091 42.9975 393.222 43.3333 393.338L43.8929 391.716C40.9125 390.688 38.5134 388.224 37.7225 384.955C36.9093 381.594 37.9966 378.211 40.3055 375.927L39.0999 374.708C38.777 375.027 38.4744 375.365 38.1932 375.719ZM55.1461 389.842C54.9263 390.12 54.6933 390.387 54.4477 390.644L53.2088 389.458C55.3892 387.179 56.3962 383.89 55.6052 380.62C54.7921 377.259 52.2789 374.749 49.1821 373.776L49.6968 372.139C50.1299 372.275 50.5534 372.437 50.9653 372.623L51.1385 372.169C51.7407 372.399 52.3213 372.679 52.8739 373.006C53.0917 372.611 53.3884 372.19 53.7496 371.78C54.8371 370.544 56.0985 369.878 56.5671 370.291C57.0356 370.705 56.5339 372.041 55.4464 373.276C55.1386 373.626 54.8167 373.93 54.5029 374.177C55.8973 375.38 57.0071 376.932 57.68 378.743C58.0025 378.61 58.3618 378.493 58.7453 378.4C60.3439 378.013 61.759 378.191 61.906 378.799C62.0529 379.407 60.8762 380.213 59.2776 380.601C58.9135 380.689 58.559 380.748 58.2268 380.779C58.5561 382.704 58.3684 384.614 57.7577 386.358C58.0558 386.432 58.3681 386.531 58.6849 386.655C60.2165 387.255 61.2734 388.214 61.0457 388.796C60.8179 389.378 59.3917 389.363 57.8602 388.763C57.5001 388.622 57.1663 388.461 56.8692 388.29C56.4818 388.959 56.0261 389.588 55.5092 390.166L55.1461 389.842ZM46.6449 396.979L46.2256 395.246L48.5699 394.678L48.0633 392.584L45.7191 393.152L45.2998 391.419L51.8848 389.823L52.3041 391.556L49.793 392.165L50.2995 394.259L52.8106 393.65L53.2299 395.383L46.6449 396.979ZM51.4038 387.835L44.8188 389.431L43.827 385.332L45.2581 384.985L45.8306 387.351L46.9018 387.092L46.3953 384.998L47.8527 384.645L48.3593 386.738L49.5709 386.445L48.9984 384.078L50.412 383.736L51.4038 387.835ZM49.9523 381.836L43.3673 383.432L42.948 381.699L47.7945 380.524L47.2199 378.149L48.9583 377.727L49.9523 381.836ZM41.7242 376.64L43.5138 373.357L40.4238 371.265L40.2344 370.482L46.8194 368.886L47.2408 370.628L43.8605 371.447L45.8493 372.791L44.7057 374.902L48.0772 374.085L48.4986 375.827L41.9136 377.423L41.7242 376.64Z" fill="#0066F5"/>
<path id="Vector_34" d="M57.4035 210.039L47.7388 232.586L70.1983 242.284L79.863 219.737L57.4035 210.039Z" fill="#0066F5"/>
<g id="text_2">
<path id="Vector_35" fill-rule="evenodd" clip-rule="evenodd" d="M71.461 234.872L66.1135 232.563L67.6606 228.954L68.5219 229.326L67.3999 231.944L68.7709 232.536L69.8304 230.064L70.6918 230.436L69.6322 232.907L71.0247 233.509L72.1468 230.891L73.0081 231.263L71.461 234.872ZM73.3198 230.536L67.9723 228.227L68.3036 227.454L72.8438 226.347L69.4132 224.865L69.8382 223.874L75.1858 226.183L74.8513 226.963L70.2479 228.034L73.7449 229.544L73.3198 230.536ZM70.0983 223.267L76.2585 223.68L76.7461 222.543L72.208 218.345L71.7455 219.424L75.2671 222.582L70.5609 222.188L70.0983 223.267ZM69.3464 235.711L68.7113 237.192L70.1968 237.834L70.8319 236.352L69.3464 235.711Z" fill="white"/>
<path id="Vector_36" d="M113.411 367.249L103.021 365.082L102.857 363.941L112.205 358.903L112.366 360.013L110.08 361.212L110.718 365.622L113.254 366.134L113.414 367.245L113.411 367.249ZM109.671 365.422L109.135 361.728L103.753 364.552L103.708 364.231L109.667 365.419L109.671 365.422Z" fill="black"/>
<path id="Vector_37" d="M112.095 357.804L104.963 358.576L104.854 357.576L106.239 357.429L106.207 357.663C105.729 357.536 105.33 357.283 105.021 356.906C104.713 356.53 104.528 356.077 104.474 355.546C104.419 355.042 104.485 354.571 104.676 354.143C104.864 353.713 105.149 353.36 105.526 353.086C105.907 352.807 106.346 352.639 106.854 352.587L111.487 352.086L111.596 353.085L107.351 353.545C106.917 353.592 106.557 353.712 106.271 353.898C105.985 354.083 105.776 354.33 105.64 354.626C105.503 354.922 105.456 355.255 105.498 355.616C105.54 355.977 105.651 356.295 105.845 356.56C106.04 356.826 106.301 357.025 106.622 357.147C106.945 357.276 107.319 357.314 107.746 357.268L111.991 356.808L112.099 357.807L112.095 357.804Z" fill="black"/>
<path id="Vector_38" d="M111.3 347.754C111.349 348.441 111.221 349.052 110.911 349.594C110.6 350.137 110.158 350.547 109.578 350.822L109.118 350.011C109.538 349.771 109.867 349.46 110.095 349.075C110.326 348.686 110.426 348.269 110.393 347.825C110.363 347.397 110.229 347.046 109.997 346.766C109.766 346.485 109.483 346.359 109.143 346.383C108.892 346.401 108.704 346.49 108.562 346.642C108.42 346.795 108.324 346.97 108.256 347.161C108.189 347.352 108.143 347.525 108.121 347.668L107.904 348.717C107.764 349.388 107.538 349.885 107.221 350.207C106.905 350.528 106.524 350.702 106.08 350.734C105.663 350.768 105.288 350.687 104.958 350.496C104.628 350.305 104.371 350.032 104.174 349.681C103.977 349.33 103.861 348.931 103.829 348.487C103.785 347.881 103.899 347.323 104.177 346.803C104.456 346.284 104.867 345.905 105.414 345.653L105.876 346.479C105.488 346.688 105.197 346.968 104.992 347.315C104.792 347.666 104.708 348.045 104.732 348.455C104.763 348.856 104.885 349.169 105.11 349.396C105.335 349.622 105.6 349.72 105.909 349.699C106.148 349.679 106.333 349.603 106.466 349.47C106.602 349.334 106.693 349.183 106.751 349.012C106.809 348.842 106.85 348.693 106.882 348.565L107.138 347.351C107.264 346.76 107.493 346.285 107.825 345.935C108.158 345.584 108.564 345.388 109.043 345.356C109.436 345.325 109.796 345.407 110.123 345.602C110.449 345.798 110.715 346.078 110.918 346.447C111.121 346.817 111.237 347.251 111.276 347.749L111.3 347.754Z" fill="black"/>
<path id="Vector_39" d="M110.867 343.499L103.702 343.881L103.651 342.879L110.817 342.496L110.867 343.499ZM102.378 343.951L100.908 344.03L100.857 343.028L102.328 342.948L102.378 343.951Z" fill="black"/>
<path id="Vector_40" d="M110.768 336.872C110.782 337.489 110.656 338.045 110.391 338.548C110.122 339.046 109.732 339.435 109.22 339.694L109.066 339.536L110.673 339.496L110.701 340.501L100.57 340.764L100.547 339.763L105.107 339.643L104.831 339.808C104.371 339.535 103.996 339.163 103.72 338.693C103.443 338.223 103.294 337.68 103.277 337.067C103.261 336.391 103.408 335.782 103.718 335.239C104.033 334.7 104.465 334.268 105.02 333.945C105.574 333.623 106.212 333.451 106.938 333.432C107.651 333.41 108.294 333.549 108.87 333.844C109.445 334.138 109.898 334.544 110.239 335.065C110.576 335.59 110.759 336.188 110.772 336.867L110.768 336.872ZM109.765 336.951C109.756 336.469 109.62 336.041 109.371 335.669C109.121 335.298 108.787 335.006 108.366 334.798C107.945 334.591 107.478 334.494 106.958 334.508C106.43 334.523 105.965 334.644 105.56 334.875C105.155 335.106 104.836 335.412 104.608 335.797C104.381 336.182 104.268 336.615 104.277 337.097C104.287 337.579 104.419 338.011 104.674 338.394C104.928 338.777 105.259 339.073 105.678 339.292C106.1 339.507 106.567 339.612 107.083 339.594C107.603 339.58 108.064 339.456 108.476 339.216C108.884 338.982 109.206 338.663 109.436 338.267C109.666 337.87 109.775 337.432 109.765 336.951Z" fill="black"/>
<path id="Vector_41" d="M110.536 331.645L100.404 331.636V330.632L110.539 330.636V331.641L110.536 331.645Z" fill="black"/>
<path id="Vector_42" d="M110.786 325.364C110.766 326.032 110.591 326.633 110.248 327.164C109.905 327.695 109.451 328.11 108.87 328.404C108.294 328.702 107.64 328.841 106.918 328.82C106.195 328.8 105.56 328.633 105.01 328.316C104.459 328 104.032 327.579 103.724 327.042C103.418 326.514 103.271 325.924 103.292 325.271C103.306 324.752 103.416 324.295 103.614 323.894C103.821 323.492 104.089 323.153 104.419 322.876C104.749 322.6 105.125 322.388 105.533 322.251C105.945 322.109 106.366 322.044 106.788 322.057C106.877 322.058 106.976 322.066 107.09 322.08C107.2 322.09 107.311 322.108 107.427 322.13L107.265 328.196L106.328 328.173L106.476 322.689L106.864 323.185C106.375 323.09 105.936 323.134 105.541 323.317C105.145 323.5 104.83 323.766 104.594 324.117C104.359 324.468 104.234 324.864 104.22 325.314C104.209 325.759 104.312 326.175 104.537 326.562C104.756 326.945 105.072 327.25 105.484 327.478C105.892 327.703 106.386 327.8 106.955 327.769C107.522 327.827 108.023 327.748 108.453 327.53C108.883 327.312 109.218 327.012 109.46 326.618C109.707 326.227 109.833 325.803 109.842 325.35C109.855 324.823 109.745 324.38 109.504 324.016C109.262 323.651 108.959 323.355 108.594 323.122L109.072 322.279C109.389 322.433 109.68 322.655 109.941 322.96C110.206 323.259 110.415 323.62 110.568 324.027C110.725 324.437 110.793 324.888 110.78 325.38L110.786 325.364Z" fill="black"/>
<path id="Vector_43" d="M118.065 274.102L117.035 273.818L117.177 273.303C117.308 272.82 117.271 272.4 117.059 272.051C116.847 271.702 116.49 271.448 115.991 271.312L109.025 269.397L109.31 268.367L116.276 270.282C116.819 270.432 117.255 270.665 117.596 270.984C117.933 271.306 118.157 271.685 118.263 272.132C118.37 272.579 118.356 273.063 118.207 273.587L118.065 274.102Z" fill="black"/>
<path id="Vector_44" d="M120.68 265.638C120.493 266.244 120.207 266.757 119.824 267.179C119.441 267.602 119.003 267.926 118.508 268.148C118.012 268.369 117.511 268.483 116.997 268.481L116.936 267.456C117.65 267.435 118.25 267.24 118.733 266.875C119.216 266.511 119.554 266.004 119.755 265.353C119.883 264.945 119.927 264.562 119.891 264.212C119.854 263.862 119.745 263.56 119.56 263.317C119.376 263.073 119.123 262.901 118.808 262.805C118.339 262.658 117.94 262.678 117.603 262.857C117.266 263.037 116.958 263.338 116.675 263.776L115.633 265.331C115.23 265.947 114.741 266.363 114.171 266.582C113.601 266.801 113.019 266.822 112.43 266.642C111.925 266.487 111.521 266.223 111.21 265.859C110.899 265.494 110.7 265.058 110.611 264.563C110.526 264.063 110.562 263.54 110.728 262.995C110.907 262.425 111.17 261.943 111.517 261.548C111.869 261.156 112.262 260.853 112.7 260.642C113.139 260.43 113.586 260.323 114.048 260.312L114.13 261.318C113.507 261.349 112.98 261.539 112.56 261.877C112.137 262.219 111.836 262.678 111.655 263.26C111.541 263.624 111.507 263.967 111.548 264.285C111.589 264.603 111.71 264.873 111.9 265.1C112.09 265.327 112.351 265.491 112.674 265.594C113.066 265.715 113.453 265.701 113.844 265.549C114.231 265.395 114.585 265.089 114.893 264.628L115.808 263.259C116.263 262.579 116.757 262.112 117.295 261.854C117.83 261.6 118.414 261.567 119.045 261.765C119.554 261.923 119.967 262.194 120.276 262.571C120.581 262.951 120.778 263.407 120.852 263.94C120.93 264.476 120.879 265.042 120.688 265.645L120.68 265.638Z" fill="black"/>
<path id="Vector_45" d="M123.816 256.268C123.581 256.926 123.238 257.492 122.796 257.972C122.354 258.452 121.837 258.832 121.254 259.103C120.667 259.379 120.034 259.527 119.353 259.56C118.675 259.589 117.981 259.48 117.274 259.228C116.567 258.977 115.961 258.623 115.46 258.164C114.956 257.71 114.564 257.191 114.282 256.605C114.004 256.023 113.85 255.406 113.817 254.752C113.788 254.101 113.887 253.447 114.121 252.789C114.356 252.13 114.699 251.564 115.141 251.084C115.584 250.604 116.1 250.224 116.684 249.953C117.271 249.678 117.899 249.526 118.577 249.497C119.251 249.464 119.945 249.574 120.648 249.83C121.355 250.082 121.957 250.439 122.462 250.894C122.967 251.349 123.358 251.867 123.633 252.454C123.911 253.036 124.069 253.656 124.105 254.306C124.139 254.96 124.04 255.615 123.808 256.269L123.816 256.268ZM122.873 255.927C123.067 255.382 123.148 254.847 123.107 254.326C123.066 253.805 122.923 253.316 122.679 252.858C122.435 252.4 122.112 251.998 121.705 251.649C121.298 251.299 120.831 251.027 120.291 250.837C119.763 250.65 119.23 250.557 118.695 250.573C118.163 250.585 117.654 250.692 117.175 250.892C116.696 251.092 116.274 251.379 115.913 251.757C115.552 252.134 115.271 252.595 115.074 253.144C114.877 253.693 114.799 254.224 114.84 254.745C114.881 255.265 115.024 255.755 115.268 256.213C115.512 256.671 115.835 257.073 116.242 257.422C116.649 257.772 117.112 258.04 117.644 258.231C118.181 258.425 118.717 258.514 119.253 258.505C119.785 258.493 120.294 258.387 120.773 258.187C121.252 257.986 121.674 257.699 122.038 257.318C122.403 256.936 122.681 256.479 122.875 255.942L122.873 255.927Z" fill="black"/>
<path id="Vector_46" d="M126.086 249.693L116.874 245.877L117.232 245.009L127.227 242.811L127.087 243.147L119.332 239.939L119.746 238.948L128.958 242.764L128.6 243.631L118.56 245.807L118.7 245.472L126.5 248.702L126.09 249.689L126.086 249.693Z" fill="black"/>
<path id="Vector_47" d="M156.497 196.366C156.068 196.926 155.574 197.366 155.014 197.677C154.455 197.988 153.858 198.179 153.231 198.241C152.603 198.303 151.966 198.245 151.325 198.052C150.68 197.863 150.062 197.542 149.468 197.086C148.874 196.63 148.401 196.117 148.051 195.547C147.7 194.977 147.475 194.381 147.371 193.754C147.266 193.128 147.291 192.506 147.449 191.884C147.606 191.262 147.899 190.671 148.328 190.11C148.74 189.571 149.206 189.158 149.726 188.879C150.247 188.6 150.771 188.422 151.293 188.36C151.819 188.295 152.298 188.332 152.729 188.456L152.513 189.506C151.882 189.335 151.269 189.352 150.673 189.551C150.081 189.752 149.566 190.14 149.12 190.722C148.674 191.304 148.419 191.926 148.345 192.592C148.271 193.259 148.385 193.908 148.681 194.539C148.976 195.17 149.455 195.737 150.113 196.243C150.763 196.743 151.438 197.053 152.126 197.179C152.814 197.304 153.473 197.246 154.094 196.998C154.712 196.754 155.248 196.341 155.694 195.759C156.089 195.241 156.332 194.687 156.428 194.1C156.518 193.509 156.461 192.947 156.249 192.404C156.042 191.863 155.68 191.396 155.172 191.008L154.736 190.677L155.411 190.59L153.015 193.718L152.272 193.151L155.022 189.557L155.681 190.064C156.198 190.459 156.602 190.918 156.896 191.436C157.19 191.954 157.374 192.497 157.44 193.066C157.511 193.638 157.464 194.208 157.301 194.776C157.141 195.348 156.865 195.882 156.483 196.383L156.497 196.366Z" fill="black"/>
<path id="Vector_48" d="M160.226 191.391L154.671 186.854L155.308 186.074L160.863 190.612L160.23 191.387L160.226 191.391ZM153.647 186.016L152.507 185.087L153.144 184.307L154.284 185.236L153.651 186.012L153.647 186.016Z" fill="black"/>
<path id="Vector_49" d="M163.997 187C163.583 187.488 163.115 187.746 162.608 187.77C162.101 187.795 161.573 187.581 161.046 187.129L157.935 184.488L157.08 185.5L156.315 184.854L156.531 184.599C156.726 184.369 156.806 184.118 156.771 183.854C156.736 183.589 156.6 183.356 156.371 183.161L155.913 182.771L156.56 182.006L157.825 183.076L158.848 181.869L159.609 182.52L158.586 183.726L161.697 186.367C161.882 186.52 162.066 186.631 162.253 186.695C162.439 186.758 162.626 186.76 162.825 186.694C163.02 186.632 163.213 186.485 163.402 186.264C163.446 186.208 163.5 186.139 163.561 186.062C163.622 185.985 163.665 185.914 163.708 185.85L164.391 186.432C164.34 186.531 164.278 186.636 164.205 186.746C164.132 186.855 164.065 186.941 164.014 187.006L163.997 187Z" fill="black"/>
<path id="Vector_50" d="M165.475 185.149L157.947 178.374L158.619 177.63L161.851 180.54L161.66 180.675C161.433 180.231 161.36 179.768 161.433 179.289C161.505 178.809 161.722 178.367 162.077 177.971C162.418 177.592 162.808 177.328 163.251 177.183C163.693 177.037 164.146 177.011 164.608 177.105C165.067 177.203 165.489 177.418 165.864 177.756L169.325 180.869L168.653 181.614L165.482 178.758C165.156 178.466 164.83 178.278 164.493 178.193C164.161 178.112 163.838 178.114 163.527 178.217C163.219 178.316 162.941 178.5 162.703 178.766C162.465 179.031 162.309 179.326 162.241 179.649C162.174 179.973 162.196 180.297 162.317 180.629C162.433 180.958 162.651 181.264 162.973 181.553L166.144 184.408L165.472 185.153L165.475 185.149Z" fill="black"/>
<path id="Vector_51" d="M172.466 177.8C172.119 178.161 171.715 178.407 171.263 178.537C170.811 178.668 170.349 178.672 169.875 178.549C169.409 178.424 168.974 178.172 168.575 177.786L165.321 174.649L166.019 173.924L169.186 176.979C169.462 177.246 169.759 177.425 170.077 177.509C170.395 177.6 170.706 177.595 171.019 177.507C171.327 177.416 171.614 177.239 171.864 176.976C172.114 176.713 172.282 176.42 172.366 176.103C172.445 175.782 172.431 175.457 172.319 175.131C172.21 174.801 171.998 174.487 171.691 174.189L168.62 171.224L169.319 170.5L174.481 175.481L173.783 176.205L172.783 175.24L172.979 175.116C173.194 175.558 173.256 176.026 173.164 176.504C173.072 176.982 172.838 177.418 172.47 177.804L172.466 177.8Z" fill="black"/>
<path id="Vector_52" d="M178.601 171.673C178.157 172.103 177.66 172.387 177.108 172.522C176.556 172.664 176.008 172.635 175.47 172.434L175.484 172.214L176.596 173.372L175.871 174.069L168.849 166.768L169.574 166.071L172.737 169.36L172.427 169.268C172.319 168.743 172.343 168.218 172.5 167.694C172.657 167.169 172.964 166.693 173.405 166.267C173.895 165.797 174.44 165.496 175.051 165.358C175.658 165.224 176.269 165.254 176.879 165.443C177.489 165.632 178.048 165.991 178.549 166.512C179.041 167.027 179.38 167.594 179.549 168.217C179.719 168.839 179.729 169.453 179.569 170.052C179.413 170.655 179.086 171.191 178.6 171.665L178.601 171.673ZM177.867 170.988C178.214 170.655 178.437 170.267 178.55 169.833C178.659 169.396 178.646 168.954 178.516 168.502C178.385 168.05 178.139 167.639 177.784 167.268C177.421 166.89 177.017 166.626 176.572 166.483C176.127 166.341 175.688 166.315 175.25 166.401C174.809 166.492 174.413 166.702 174.066 167.035C173.72 167.367 173.493 167.76 173.377 168.198C173.264 168.64 173.27 169.091 173.39 169.548C173.513 170.008 173.752 170.42 174.111 170.795C174.47 171.169 174.874 171.425 175.326 171.567C175.779 171.708 176.229 171.729 176.673 171.634C177.118 171.539 177.517 171.325 177.864 170.992L177.867 170.988Z" fill="black"/>
<path id="Vector_53" d="M183.274 167.039L179.48 157.128L180.349 156.371L189.64 161.498L188.792 162.236L186.545 160.962L183.184 163.892L184.123 166.301L183.274 167.039ZM182.785 162.907L185.602 160.454L180.317 157.462L180.561 157.25L182.785 162.907Z" fill="black"/>
<path id="Vector_54" d="M192.942 159.038C192.394 159.484 191.806 159.744 191.184 159.825C190.563 159.906 189.954 159.822 189.36 159.568C188.77 159.318 188.244 158.917 187.798 158.362C187.352 157.807 187.069 157.213 186.949 156.589C186.833 155.96 186.883 155.35 187.09 154.761C187.302 154.168 187.682 153.652 188.233 153.21C188.582 152.927 188.956 152.728 189.366 152.606C189.772 152.48 190.179 152.432 190.586 152.454C190.994 152.477 191.368 152.577 191.712 152.758L191.299 153.695C190.916 153.51 190.511 153.441 190.075 153.48C189.64 153.52 189.236 153.696 188.87 153.992C188.503 154.288 188.245 154.649 188.1 155.071C187.954 155.493 187.924 155.937 188.016 156.393C188.105 156.854 188.319 157.288 188.651 157.697C188.974 158.099 189.355 158.393 189.786 158.58C190.216 158.767 190.652 158.832 191.102 158.783C191.552 158.734 191.956 158.558 192.325 158.258C192.692 157.962 192.942 157.602 193.073 157.189C193.204 156.776 193.213 156.351 193.108 155.919L194.126 155.734C194.227 156.1 194.249 156.486 194.187 156.891C194.125 157.295 193.991 157.685 193.786 158.059C193.58 158.434 193.303 158.758 192.957 159.037L192.942 159.038Z" fill="black"/>
<path id="Vector_55" d="M198.746 154.413C198.235 154.804 197.727 154.953 197.222 154.869C196.718 154.784 196.256 154.46 195.837 153.906L193.368 150.657L192.313 151.462L191.706 150.661L191.971 150.459C192.214 150.275 192.343 150.049 192.367 149.782C192.39 149.514 192.306 149.259 192.122 149.016L191.755 148.537L192.556 147.929L193.562 149.248L194.821 148.29L195.428 149.091L194.169 150.049L196.638 153.298C196.786 153.491 196.943 153.636 197.106 153.738C197.274 153.842 197.458 153.883 197.662 153.863C197.866 153.843 198.084 153.743 198.316 153.564C198.373 153.519 198.437 153.464 198.511 153.397C198.585 153.33 198.644 153.273 198.697 153.224L199.24 153.939C199.172 154.024 199.089 154.112 198.987 154.206C198.888 154.295 198.807 154.371 198.743 154.417L198.746 154.413Z" fill="black"/>
<path id="Vector_56" d="M200.63 152.91L196.389 147.124L197.2 146.53L201.44 152.316L200.63 152.91ZM195.611 146.055L194.74 144.865L195.551 144.271L196.421 145.461L195.611 146.055Z" fill="black"/>
<path id="Vector_57" d="M205.903 149.344C205.345 149.733 204.748 149.951 204.107 149.995C203.465 150.04 202.849 149.929 202.263 149.647C201.67 149.367 201.172 148.931 200.764 148.336C200.357 147.749 200.125 147.134 200.07 146.49C200.014 145.847 200.118 145.231 200.385 144.654C200.649 144.074 201.07 143.585 201.643 143.187C202.216 142.788 202.817 142.566 203.453 142.518C204.09 142.471 204.696 142.587 205.277 142.865C205.855 143.147 206.353 143.583 206.766 144.181C207.182 144.783 207.419 145.409 207.467 146.061C207.516 146.714 207.413 147.329 207.142 147.91C206.871 148.491 206.467 148.967 205.915 149.347L205.903 149.344ZM205.332 148.516C205.728 148.244 206.019 147.894 206.199 147.472C206.384 147.053 206.445 146.606 206.393 146.133C206.342 145.66 206.169 145.209 205.874 144.781C205.579 144.352 205.219 144.04 204.801 143.828C204.38 143.621 203.945 143.528 203.485 143.554C203.028 143.577 202.602 143.728 202.205 144.001C201.809 144.273 201.518 144.622 201.341 145.04C201.156 145.459 201.091 145.903 201.131 146.373C201.173 146.84 201.339 147.291 201.637 147.716C201.933 148.144 202.296 148.46 202.722 148.671C203.152 148.885 203.595 148.977 204.051 148.954C204.508 148.932 204.934 148.781 205.331 148.508L205.332 148.516Z" fill="black"/>
<path id="Vector_58" d="M210.217 146.255L206.262 140.275L207.1 139.717L207.87 140.877L207.65 140.961C207.543 140.479 207.586 140.011 207.775 139.56C207.968 139.113 208.283 138.741 208.731 138.447C209.154 138.168 209.599 138.01 210.07 137.978C210.534 137.947 210.98 138.035 211.401 138.242C211.823 138.45 212.171 138.767 212.454 139.193L215.021 143.078L214.186 143.631L211.832 140.069C211.591 139.704 211.319 139.44 211.027 139.272C210.727 139.104 210.418 139.028 210.09 139.047C209.761 139.066 209.451 139.176 209.143 139.38C208.836 139.583 208.612 139.832 208.463 140.126C208.315 140.42 208.262 140.741 208.295 141.088C208.328 141.434 208.47 141.784 208.702 142.142L211.056 145.704L210.221 146.258L210.217 146.255Z" fill="black"/>
<path id="Vector_59" d="M218.848 141.004C218.258 141.354 217.65 141.515 217.027 141.483C216.405 141.451 215.842 141.237 215.333 140.841L215.85 140.064C216.251 140.332 216.674 140.485 217.129 140.517C217.577 140.55 217.997 140.45 218.379 140.222C218.747 140.004 219.003 139.725 219.151 139.396C219.295 139.063 219.283 138.753 219.109 138.462C218.979 138.248 218.819 138.115 218.618 138.06C218.421 138.009 218.217 137.995 218.017 138.018C217.814 138.046 217.643 138.078 217.504 138.121L216.469 138.398C215.805 138.578 215.262 138.595 214.837 138.454C214.412 138.313 214.081 138.052 213.854 137.67C213.637 137.31 213.543 136.943 213.565 136.563C213.591 136.186 213.713 135.829 213.943 135.495C214.169 135.164 214.475 134.883 214.861 134.651C215.381 134.337 215.936 134.19 216.526 134.21C217.112 134.227 217.638 134.426 218.106 134.803L217.575 135.59C217.218 135.336 216.832 135.198 216.433 135.175C216.028 135.148 215.651 135.247 215.297 135.456C214.952 135.664 214.732 135.916 214.627 136.216C214.522 136.517 214.555 136.801 214.714 137.067C214.836 137.274 214.988 137.408 215.173 137.464C215.355 137.525 215.532 137.539 215.712 137.514C215.889 137.493 216.045 137.463 216.17 137.429L217.371 137.117C217.957 136.966 218.478 136.959 218.942 137.096C219.402 137.236 219.757 137.51 220.008 137.924C220.207 138.263 220.295 138.619 220.265 139C220.236 139.381 220.103 139.743 219.863 140.091C219.623 140.438 219.288 140.738 218.858 140.991L218.848 141.004Z" fill="black"/>
<path id="Vector_60" d="M268.345 118.967L261.996 110.454L263.061 110.138L268.714 117.864L268.507 117.924L269.001 108.361L270.077 108.04L269.421 118.646L268.345 118.967Z" fill="black"/>
<path id="Vector_61" d="M276.54 116.832C275.89 117.002 275.266 116.997 274.662 116.819C274.057 116.641 273.536 116.313 273.087 115.84C272.639 115.367 272.329 114.78 272.146 114.077C271.967 113.378 271.949 112.722 272.103 112.104C272.257 111.487 272.542 110.959 272.969 110.515C273.397 110.072 273.922 109.769 274.553 109.605C275.052 109.476 275.524 109.452 275.966 109.536C276.408 109.621 276.809 109.784 277.168 110.026C277.527 110.268 277.826 110.568 278.078 110.92C278.326 111.276 278.503 111.66 278.613 112.075C278.635 112.162 278.654 112.261 278.675 112.368C278.692 112.479 278.708 112.59 278.718 112.709L272.847 114.24L272.609 113.334L277.921 111.947L277.552 112.457C277.506 111.96 277.341 111.551 277.058 111.222C276.774 110.894 276.432 110.665 276.028 110.534C275.623 110.402 275.21 110.396 274.775 110.506C274.344 110.618 273.972 110.834 273.663 111.154C273.354 111.475 273.15 111.865 273.043 112.317C272.94 112.773 272.983 113.274 273.171 113.813C273.271 114.373 273.484 114.835 273.81 115.19C274.139 115.541 274.521 115.78 274.964 115.907C275.407 116.034 275.851 116.037 276.29 115.923C276.8 115.789 277.193 115.556 277.477 115.223C277.762 114.889 277.959 114.516 278.082 114.096L279.027 114.32C278.97 114.666 278.831 115.009 278.617 115.35C278.399 115.687 278.115 115.985 277.765 116.252C277.413 116.511 277 116.708 276.524 116.834L276.54 116.832Z" fill="black"/>
<path id="Vector_62" d="M281.262 115.495L279.657 108.5L280.635 108.276L280.897 109.425L280.726 109.289C280.819 108.916 281.007 108.598 281.295 108.33C281.584 108.063 281.97 107.873 282.448 107.763L282.891 107.66L283.114 108.638L282.5 108.781C281.996 108.898 281.628 109.144 281.392 109.53C281.157 109.916 281.108 110.393 281.24 110.965L282.228 115.268L281.25 115.492L281.262 115.495Z" fill="black"/>
<path id="Vector_63" d="M288.844 114.012C288.156 114.151 287.513 114.11 286.923 113.895C286.333 113.68 285.832 113.318 285.428 112.825C285.02 112.327 284.744 111.733 284.604 111.029C284.46 110.33 284.485 109.673 284.674 109.062C284.864 108.452 285.185 107.932 285.646 107.508C286.106 107.084 286.684 106.801 287.373 106.662C287.811 106.576 288.238 106.572 288.656 106.652C289.074 106.731 289.457 106.873 289.808 107.081C290.16 107.289 290.447 107.551 290.66 107.872L289.862 108.511C289.612 108.167 289.287 107.917 288.878 107.755C288.47 107.592 288.038 107.557 287.574 107.651C287.11 107.744 286.716 107.942 286.39 108.249C286.064 108.556 285.835 108.934 285.701 109.386C285.567 109.837 285.553 110.322 285.656 110.835C285.757 111.341 285.956 111.777 286.252 112.144C286.548 112.51 286.905 112.772 287.321 112.933C287.737 113.095 288.181 113.132 288.645 113.038C289.109 112.945 289.495 112.748 289.802 112.439C290.109 112.131 290.315 111.764 290.42 111.331L291.41 111.639C291.328 112.007 291.167 112.361 290.925 112.693C290.684 113.025 290.386 113.305 290.032 113.541C289.677 113.778 289.28 113.937 288.846 114.027L288.844 114.012Z" fill="black"/>
<path id="Vector_64" d="M296.657 112.6C295.996 112.705 295.374 112.645 294.789 112.406C294.201 112.172 293.71 111.797 293.315 111.283C292.92 110.769 292.658 110.157 292.54 109.443C292.422 108.728 292.474 108.072 292.681 107.475C292.891 106.874 293.23 106.375 293.693 105.974C294.156 105.573 294.711 105.321 295.353 105.215C295.865 105.131 296.335 105.154 296.766 105.278C297.197 105.403 297.582 105.603 297.914 105.879C298.246 106.156 298.525 106.481 298.737 106.857C298.952 107.237 299.092 107.633 299.161 108.057C299.175 108.145 299.186 108.245 299.195 108.357C299.205 108.469 299.21 108.585 299.208 108.702L293.225 109.678L293.079 108.753L298.496 107.867L298.084 108.344C298.085 107.849 297.957 107.42 297.706 107.068C297.455 106.716 297.132 106.454 296.747 106.289C296.358 106.121 295.943 106.072 295.504 106.143C295.064 106.214 294.677 106.396 294.337 106.685C293.997 106.974 293.759 107.345 293.612 107.786C293.469 108.232 293.465 108.73 293.596 109.287C293.644 109.862 293.812 110.337 294.105 110.715C294.395 111.098 294.758 111.37 295.186 111.534C295.614 111.698 296.055 111.747 296.503 111.675C297.022 111.591 297.44 111.398 297.751 111.093C298.062 110.788 298.3 110.432 298.46 110.028L299.379 110.337C299.291 110.678 299.123 111.006 298.875 111.319C298.627 111.632 298.317 111.91 297.942 112.137C297.568 112.364 297.138 112.52 296.653 112.596L296.657 112.6Z" fill="black"/>
<path id="Vector_65" d="M301.487 111.71L300.122 101.669L301.115 101.533L302.479 111.574L301.487 111.71Z" fill="black"/>
</g>
<path id="Vector_66" fill-rule="evenodd" clip-rule="evenodd" d="M124.671 388.773C123.146 383.553 117.676 380.55 112.452 382.065C107.229 383.58 104.23 389.039 105.754 394.259C107.279 399.479 112.749 402.482 117.973 400.967C123.197 399.452 126.195 393.992 124.671 388.773ZM116.81 388.225L111.484 392.423L114.977 392.764L116.81 388.225ZM109.686 392.313L117.647 385.923C117.746 385.849 117.842 385.796 117.907 385.777C118.306 385.662 118.677 385.904 118.785 386.272C118.838 386.456 118.808 386.618 118.706 386.861L116.187 392.882L120.762 393.328L121.175 394.741L110.031 393.494C109.738 393.463 109.532 393.272 109.456 393.011C109.38 392.751 109.456 392.496 109.686 392.313Z" fill="#0066F5"/>
<path id="Vector_67" fill-rule="evenodd" clip-rule="evenodd" d="M113.63 298.086C120.177 294.708 113.341 289.313 108.828 288.608C103.492 287.774 99.6539 292.711 99.1632 295.808C98.3756 300.779 101.734 306.161 107.355 307.048C113.603 308.033 117.923 303.152 118.601 298.874C118.308 299.82 117.106 302.937 109.667 301.809C104.636 301.045 102.893 299.06 104.187 296.608C104.218 296.553 105.766 293.927 109.375 294.496C112.968 295.063 113.63 298.086 113.63 298.086Z" fill="url(#paint0_linear_1454_9912)"/>
<path id="Vector_68" fill-rule="evenodd" clip-rule="evenodd" d="M104.187 296.596C102.756 299.285 104.548 303.138 109.241 303.878C116.906 305.087 118.501 299.517 118.61 298.828C119.398 293.857 116.04 288.475 110.419 287.588C104.171 286.603 99.8502 291.484 99.1724 295.762C99.196 294.552 101.467 289.577 108.577 290.699C113.213 291.43 115.122 295.713 113.643 298.069C113.612 298.124 112.064 300.75 108.455 300.181C104.862 299.614 104.186 296.596 104.186 296.596H104.187Z" fill="url(#paint1_linear_1454_9912)"/>
<path id="Vector_69" fill-rule="evenodd" clip-rule="evenodd" d="M126.705 212.831C123.916 217.68 125.571 223.859 130.404 226.639C134.27 228.862 138.993 228.23 142.157 225.412C142.489 225.022 142.313 224.706 142.077 224.57C141.868 224.449 141.317 224.14 140.584 223.725C139.706 226.468 137.712 226.01 137.712 226.01C136.473 225.828 135.873 226.25 135.873 226.25C134.872 226.735 135.376 225.885 135.376 225.885C135.945 225.043 137.052 225.057 137.052 225.057C138.839 225.044 139.183 223.551 139.246 222.92C138.729 222.515 138.472 222.066 138.394 221.692C137.053 223.515 135.123 225.13 131.773 223.203C130.817 222.653 130.234 221.866 129.947 220.948C129.674 220.913 128.609 220.702 127.682 219.531C127.682 219.531 127.87 218.657 129.967 217.633C130.176 216.821 130.51 216.017 130.936 215.265C131.363 214.521 131.899 213.826 132.495 213.237C132.326 210.909 132.987 210.307 132.987 210.307C134.465 210.52 135.183 211.334 135.351 211.552C136.285 211.344 137.259 211.452 138.215 212.002C141.576 213.936 141.131 216.411 140.227 218.494C140.675 218.336 141.376 218.359 142.192 218.828C143.363 219.502 144.296 220.053 144.586 220.22C144.822 220.356 145.181 220.354 145.352 219.857C146.197 215.704 144.365 211.31 140.505 209.089C135.667 206.306 129.493 207.982 126.705 212.831Z" fill="#0066F5"/>
<path id="Vector_70" fill-rule="evenodd" clip-rule="evenodd" d="M237.108 114.326L253.922 127.825L233.469 135.595L237.108 114.326Z" fill="#0066F5"/>
<path id="Vector_71" fill-rule="evenodd" clip-rule="evenodd" d="M333.937 97.8839C334.295 98.0659 334.584 98.365 334.707 98.7357L336.612 106.319C336.665 106.714 336.575 107.11 336.343 107.438L331.42 113.563C331.164 113.915 330.763 114.105 330.335 114.064L322.367 114.153C321.963 114.134 321.557 113.953 321.269 113.677L316.183 107.664C315.942 107.341 315.841 106.947 315.907 106.551L317.583 98.8809C317.673 98.4846 317.93 98.1794 318.283 98.0127L325.471 94.5136C325.66 94.465 325.873 94.4626 326.063 94.4605C326.253 94.4583 326.467 94.4792 326.658 94.5701L333.937 97.8839ZM333.64 106.024C333.641 106.048 333.664 106.047 333.688 106.047C333.902 106.091 334.094 106.275 334.122 106.531C334.053 106.718 333.865 106.859 333.652 106.862C333.604 106.862 333.58 106.862 333.533 106.84C333.509 106.817 333.509 106.817 333.485 106.817C333.457 106.817 333.437 106.809 333.421 106.803C333.409 106.798 333.4 106.795 333.39 106.795C333.319 106.778 333.261 106.749 333.197 106.716C333.175 106.705 333.152 106.693 333.127 106.681C333.08 106.682 333.032 106.659 332.984 106.636L332.961 106.637C332.722 106.546 332.46 106.48 332.199 106.436H332.175C332.104 106.437 332.033 106.461 331.986 106.508C331.986 106.508 331.987 106.531 331.963 106.532L331.773 106.51C331.364 107.841 330.454 108.967 329.254 109.701L329.328 109.887C329.328 109.887 329.304 109.887 329.304 109.91C329.258 109.98 329.259 110.073 329.284 110.143C329.382 110.374 329.503 110.606 329.672 110.813L329.673 110.86C329.721 110.906 329.745 110.929 329.769 110.975C329.841 111.044 329.89 111.113 329.938 111.205C329.962 111.228 329.986 111.251 329.987 111.275C329.987 111.275 330.011 111.274 330.011 111.298C330.06 111.413 330.061 111.53 330.039 111.646C330.017 111.763 329.923 111.857 329.829 111.904C329.814 111.909 329.801 111.914 329.788 111.919C329.738 111.937 329.696 111.952 329.64 111.953C329.45 111.955 329.283 111.841 329.186 111.679C329.162 111.679 329.162 111.656 329.162 111.656C329.15 111.644 329.144 111.633 329.138 111.621C329.131 111.61 329.125 111.598 329.113 111.587C329.065 111.518 329.04 111.425 329.015 111.332L328.966 111.193L328.965 111.17C328.891 110.915 328.769 110.684 328.647 110.452C328.599 110.383 328.527 110.337 328.456 110.315C328.455 110.292 328.455 110.292 328.432 110.292L328.335 110.13C328.275 110.149 328.213 110.169 328.15 110.189C327.966 110.249 327.773 110.311 327.579 110.348C327.153 110.469 326.727 110.52 326.3 110.525C325.589 110.533 324.899 110.425 324.232 110.176L324.139 110.363C324.139 110.375 324.14 110.381 324.137 110.384C324.134 110.387 324.128 110.387 324.116 110.387C324.045 110.411 323.975 110.458 323.928 110.529C323.813 110.762 323.697 110.996 323.629 111.253L323.584 111.393C323.573 111.439 323.555 111.48 323.538 111.521C323.521 111.562 323.504 111.603 323.492 111.65C323.469 111.673 323.446 111.697 323.446 111.72C323.422 111.72 323.423 111.743 323.423 111.743C323.33 111.907 323.165 112.025 322.976 112.028C322.928 112.028 322.857 112.006 322.809 111.983C322.594 111.869 322.495 111.591 322.611 111.357C322.635 111.357 322.634 111.334 322.634 111.334C322.646 111.322 322.652 111.31 322.658 111.299C322.663 111.287 322.669 111.275 322.681 111.263C322.711 111.222 322.737 111.181 322.761 111.144C322.791 111.097 322.817 111.055 322.844 111.029C322.89 110.982 322.914 110.958 322.937 110.912V110.888C323.076 110.678 323.215 110.443 323.307 110.21C323.33 110.14 323.329 110.047 323.28 109.978C323.28 109.978 323.256 109.978 323.256 109.955L323.373 109.791C323.134 109.677 322.942 109.54 322.727 109.379C321.792 108.692 321.115 107.746 320.745 106.68L320.532 106.706C320.532 106.706 320.532 106.683 320.508 106.683C320.46 106.637 320.389 106.615 320.317 106.615L320.294 106.616C320.01 106.665 319.773 106.738 319.514 106.834H319.49C319.443 106.835 319.396 106.858 319.348 106.882C319.322 106.891 319.292 106.903 319.261 106.916C319.207 106.938 319.148 106.963 319.089 106.978C319.082 106.978 319.07 106.976 319.057 106.974C319.028 106.969 318.994 106.963 318.994 106.979C318.994 106.991 318.994 106.996 318.991 106.999C318.988 107.002 318.982 107.003 318.971 107.003C318.923 107.026 318.9 107.027 318.852 107.027C318.639 107.053 318.424 106.916 318.374 106.707C318.323 106.452 318.486 106.217 318.746 106.168C318.769 106.144 318.769 106.144 318.793 106.144C318.821 106.144 318.84 106.136 318.856 106.129C318.868 106.124 318.878 106.12 318.887 106.12C318.935 106.119 318.982 106.113 319.03 106.107C319.077 106.1 319.124 106.094 319.172 106.093C319.219 106.07 319.266 106.069 319.314 106.069C319.598 106.042 319.858 105.993 320.118 105.92C320.189 105.873 320.259 105.825 320.282 105.755C320.282 105.755 320.306 105.755 320.305 105.732L320.495 105.683C320.263 104.36 320.554 103.008 321.273 101.861C321.285 101.837 321.297 101.82 321.308 101.802C321.32 101.785 321.331 101.767 321.343 101.744L321.203 101.61C321.213 101.543 321.169 101.462 321.125 101.42C320.933 101.237 320.694 101.1 320.455 100.963L320.312 100.895C320.216 100.849 320.121 100.804 320.049 100.758C320.025 100.758 319.977 100.712 319.977 100.712C319.977 100.712 319.977 100.689 319.953 100.689C319.761 100.529 319.71 100.25 319.849 100.039C319.919 99.9223 320.037 99.8745 320.179 99.8729C320.298 99.8716 320.417 99.9167 320.513 99.9854L320.537 100.008C320.549 100.02 320.561 100.026 320.573 100.031C320.585 100.037 320.597 100.043 320.609 100.054C320.645 100.089 320.675 100.123 320.705 100.158C320.735 100.192 320.765 100.227 320.801 100.261C320.808 100.268 320.818 100.275 320.828 100.283C320.852 100.3 320.88 100.321 320.897 100.353C321.066 100.537 321.282 100.721 321.497 100.881C321.545 100.904 321.593 100.927 321.64 100.926C321.668 100.926 321.688 100.918 321.704 100.911C321.715 100.906 321.725 100.902 321.735 100.902H321.759L321.902 100.993C322.674 100.171 323.686 99.5778 324.797 99.3328C324.838 99.3256 324.879 99.3185 324.919 99.3114C325.157 99.2693 325.379 99.2299 325.602 99.2075L325.624 99.0212L325.623 98.9747C325.693 98.9274 325.716 98.8574 325.739 98.7874C325.735 98.5084 325.732 98.2526 325.681 97.9973V97.9741C325.68 97.9276 325.679 97.8811 325.655 97.8348C325.63 97.7421 325.605 97.6494 325.604 97.5564L325.602 97.4401C325.601 97.3238 325.647 97.207 325.74 97.113C325.857 96.9954 325.999 96.924 326.141 96.9457C326.379 96.9663 326.572 97.1967 326.551 97.4295L326.553 97.569C326.542 97.6156 326.536 97.6622 326.531 97.7088C326.526 97.7553 326.52 97.8019 326.509 97.8485C326.509 97.8718 326.504 97.8951 326.498 97.9184C326.493 97.9418 326.487 97.9651 326.487 97.9883L326.488 98.0116C326.444 98.2911 326.447 98.5469 326.451 98.8027C326.475 98.8722 326.5 98.9417 326.572 98.9874V98.9641L326.598 99.1499C327.714 99.2536 328.811 99.66 329.697 100.324C329.793 100.416 329.895 100.508 329.997 100.6C330.099 100.692 330.202 100.784 330.298 100.876L330.486 100.757H330.51C330.534 100.78 330.581 100.78 330.605 100.779C330.652 100.779 330.699 100.755 330.746 100.731C330.958 100.589 331.169 100.401 331.332 100.213C331.34 100.206 331.349 100.199 331.359 100.191C331.382 100.173 331.41 100.152 331.426 100.119C331.473 100.049 331.543 99.9782 331.613 99.9077C331.637 99.9074 331.66 99.8839 331.683 99.8604L331.707 99.8368C331.801 99.766 331.919 99.7182 332.037 99.7169C332.156 99.7155 332.299 99.7837 332.372 99.8759C332.54 100.083 332.497 100.363 332.285 100.528C332.286 100.537 332.289 100.542 332.292 100.547C332.297 100.555 332.301 100.56 332.286 100.575C332.274 100.586 332.263 100.592 332.251 100.598C332.239 100.604 332.227 100.61 332.216 100.622C332.168 100.646 332.127 100.669 332.086 100.693C332.045 100.717 332.004 100.74 331.957 100.764L331.815 100.836C331.58 100.978 331.368 101.12 331.157 101.308C331.111 101.355 331.088 101.448 331.089 101.518V101.541L330.949 101.683C331.336 102.26 331.63 102.907 331.805 103.58C331.956 104.253 332.013 104.95 331.927 105.625L332.117 105.669C332.142 105.739 332.214 105.808 332.286 105.83C332.547 105.897 332.833 105.94 333.094 105.961H333.118C333.165 105.983 333.213 105.983 333.26 105.982C333.355 105.981 333.45 105.98 333.545 106.002C333.593 106.002 333.64 106.001 333.64 106.024ZM321.203 101.61L321.199 101.606V101.629C321.201 101.623 321.203 101.617 321.203 101.61ZM326.188 105.713L326.824 105.403L326.981 104.727L326.523 104.174L325.812 104.182L325.368 104.745L325.543 105.417L326.188 105.713ZM330.784 105.312C330.825 104.823 330.795 104.335 330.67 103.848C330.545 103.361 330.349 102.899 330.082 102.483L328.325 104.084C328.278 104.131 328.255 104.178 328.232 104.248C328.187 104.458 328.309 104.666 328.523 104.71L330.784 105.312ZM327.432 103.001L329.359 101.631C328.638 100.941 327.707 100.51 326.662 100.405L326.836 102.752C326.837 102.822 326.861 102.868 326.909 102.914C327.03 103.075 327.268 103.096 327.432 103.001ZM325.523 100.394L325.05 100.493C324.223 100.688 323.469 101.115 322.861 101.703L324.848 103.053C324.862 103.058 324.876 103.063 324.89 103.067C324.94 103.084 324.982 103.098 325.038 103.098C325.251 103.095 325.439 102.93 325.436 102.721L325.523 100.394ZM323.96 104.086L322.184 102.571C321.674 103.438 321.45 104.44 321.535 105.416L323.826 104.739C323.921 104.715 323.968 104.691 324.015 104.621C324.155 104.456 324.128 104.224 323.96 104.086ZM324.177 106.084L321.834 106.505C322.179 107.432 322.854 108.238 323.691 108.764L324.563 106.614C324.61 106.544 324.609 106.451 324.584 106.382C324.558 106.196 324.366 106.082 324.177 106.084ZM326.238 109.456C326.594 109.452 326.925 109.402 327.256 109.328C327.422 109.28 327.564 109.255 327.706 109.23L326.54 107.22C326.468 107.151 326.42 107.105 326.348 107.06C326.181 106.968 325.992 107.017 325.875 107.158L324.741 109.24C325.217 109.375 325.74 109.462 326.238 109.456ZM328.719 108.684C329.283 108.329 329.775 107.835 330.123 107.273C330.309 107.015 330.447 106.711 330.561 106.385L328.184 106.016C328.113 106.017 328.043 106.041 327.972 106.065C327.807 106.136 327.714 106.323 327.764 106.509L328.719 108.684Z" fill="#0066F5"/>
</g>
<defs>
<linearGradient id="paint0_linear_1454_9912" x1="100.946" y1="303.089" x2="116.823" y2="291.552" gradientUnits="userSpaceOnUse">
<stop stop-color="#4D4DFF"/>
<stop offset="1" stop-color="white"/>
</linearGradient>
<linearGradient id="paint1_linear_1454_9912" x1="116.822" y1="291.541" x2="100.946" y2="303.078" gradientUnits="userSpaceOnUse">
<stop stop-color="#4D4DFF"/>
<stop offset="1" stop-color="white"/>
</linearGradient>
</defs>
</svg>
